<svg width="188" height="25" viewBox="0 0 188 25" fill="none" xmlns="http://www.w3.org/2000/svg">
<path d="M136.889 18.1343V6.82118H138.259V16.919H143.517V18.1343H136.889Z" fill="currentColor"/>
<path d="M148.061 18.1343H146.625L150.779 6.82118H152.193L156.347 18.1343H154.911L151.53 8.61095H151.442L148.061 18.1343ZM148.591 13.7151H154.381V14.9304H148.591V13.7151Z" fill="currentColor"/>
<path d="M159.354 18.1343V6.82118H163.309C164.097 6.82118 164.747 6.95743 165.259 7.22995C165.771 7.49879 166.152 7.86153 166.402 8.31818C166.653 8.77114 166.778 9.27383 166.778 9.82623C166.778 10.3123 166.691 10.7137 166.518 11.0305C166.349 11.3472 166.124 11.5976 165.844 11.7817C165.568 11.9659 165.268 12.1021 164.944 12.1905V12.301C165.29 12.3231 165.638 12.4446 165.988 12.6656C166.338 12.8865 166.631 13.2032 166.866 13.6157C167.102 14.0281 167.22 14.5327 167.22 15.1293C167.22 15.6964 167.091 16.2064 166.833 16.6594C166.575 17.1124 166.168 17.4714 165.612 17.7366C165.056 18.0017 164.333 18.1343 163.441 18.1343H159.354ZM160.724 16.919H163.441C164.336 16.919 164.972 16.7459 165.347 16.3998C165.727 16.0499 165.916 15.6264 165.916 15.1293C165.916 14.7463 165.819 14.3927 165.623 14.0687C165.428 13.7409 165.15 13.4794 164.789 13.2842C164.428 13.0854 164.001 12.9859 163.508 12.9859H160.724V16.919ZM160.724 11.7928H163.265C163.677 11.7928 164.049 11.7117 164.381 11.5497C164.716 11.3877 164.981 11.1593 165.176 10.8647C165.375 10.5701 165.474 10.224 165.474 9.82623C165.474 9.32907 165.301 8.9074 164.955 8.56123C164.609 8.21138 164.06 8.03645 163.309 8.03645H160.724V11.7928Z" fill="currentColor"/>
<path d="M176.902 9.64946C176.836 9.08969 176.567 8.65514 176.096 8.3458C175.624 8.03645 175.046 7.88178 174.361 7.88178C173.86 7.88178 173.422 7.9628 173.046 8.12484C172.674 8.28687 172.384 8.50968 172.174 8.79324C171.967 9.07681 171.864 9.39904 171.864 9.75994C171.864 10.0619 171.936 10.3215 172.08 10.5388C172.227 10.7524 172.415 10.931 172.643 11.0746C172.872 11.2146 173.111 11.3306 173.361 11.4227C173.612 11.511 173.842 11.5829 174.052 11.6381L175.201 11.9474C175.495 12.0248 175.823 12.1316 176.184 12.2678C176.549 12.4041 176.897 12.5901 177.228 12.8258C177.563 13.0578 177.839 13.3561 178.057 13.7206C178.274 14.0852 178.383 14.5327 178.383 15.063C178.383 15.6743 178.222 16.2267 177.902 16.7202C177.585 17.2136 177.121 17.6058 176.51 17.8968C175.902 18.1877 175.164 18.3332 174.295 18.3332C173.485 18.3332 172.783 18.2024 172.19 17.941C171.601 17.6795 171.137 17.3149 170.798 16.8472C170.463 16.3795 170.273 15.8363 170.229 15.2176H171.643C171.68 15.6448 171.824 15.9984 172.074 16.2782C172.328 16.5544 172.649 16.7607 173.035 16.8969C173.426 17.0295 173.846 17.0958 174.295 17.0958C174.818 17.0958 175.287 17.0111 175.703 16.8417C176.12 16.6686 176.449 16.4292 176.692 16.1236C176.935 15.8142 177.057 15.4533 177.057 15.0409C177.057 14.6652 176.952 14.3596 176.742 14.1239C176.532 13.8882 176.256 13.6967 175.913 13.5494C175.571 13.4021 175.201 13.2732 174.803 13.1627L173.411 12.765C172.527 12.5109 171.827 12.1481 171.312 11.6768C170.796 11.2054 170.539 10.5885 170.539 9.82623C170.539 9.19281 170.71 8.64041 171.052 8.16903C171.398 7.69397 171.862 7.3257 172.444 7.06423C173.03 6.79908 173.684 6.6665 174.405 6.6665C175.135 6.6665 175.783 6.79724 176.35 7.05871C176.917 7.31649 177.366 7.67003 177.698 8.11931C178.033 8.5686 178.21 9.07865 178.228 9.64946H176.902Z" fill="currentColor"/>
<rect x="0.555556" y="-0.555556" width="58.1606" height="23.8889" rx="9.44444" transform="matrix(1 0 0 -1 128 23.8889)" stroke="currentColor" stroke-width="1.11111"/>
<path d="M19.8605 25V7.48974H22.4189V4.99316H28.8326V0H22.4189V2.49658H19.8605V0H14.7436V25H19.8605Z" fill="currentColor"/>
<path d="M49.3703 25V22.5034H51.9287V20.0068H54.4872V17.5103H46.7943V20.0068H39.1014V17.5103H36.543V13.7483H54.4872V4.99316H51.9287V2.49658H49.3703V0H36.543V2.49658H33.9845V4.99316H31.4261V20.0068H33.9845V22.5034H36.543V25H49.3703ZM36.543 10.0034V7.48974H39.1014V4.99316H46.7943V7.48974H49.3703V10.0034H36.543Z" fill="currentColor"/>
<path d="M59.6154 25H63.0279V2.2097L69.205 25H75.3821V0H71.9696V22.8769L65.8789 0H59.6154V25Z" fill="currentColor"/>
<path d="M79.2731 25H83.0744V14.2981H91.1521V10.6586H83.0744V3.63951H91.1521V0H79.2731V25Z" fill="currentColor"/>
<path d="M99.0824 25H102.927V3.59619H108.974V0H92.9917V3.59619H99.0824V25Z" fill="currentColor"/>
<path d="M118.4 11.1185V1.39575H116.982V0H113.462V2.08887H116.278V11.1185H118.4ZM120.513 13.891V11.1185H118.4V13.891H120.513ZM116.982 25V23.6043H118.4V13.891H116.278V22.9111H113.462V25H116.982Z" fill="currentColor"/>
<path d="M4.22498 11.1185V2.08887H7.05128V0H3.52082V1.39575H2.11249V11.1185H4.22498ZM2.11249 13.891V11.1185H0V13.891H2.11249ZM7.05128 25V22.9111H4.22498V13.891H2.11249V23.6043H3.52082V25H7.05128Z" fill="currentColor"/>
</svg>
